<svg width="736" height="788" viewBox="0 0 736 788" fill="none" xmlns="http://www.w3.org/2000/svg">
<g clip-path="url(#clip0_57_196)">
<path d="M341.003 241.183L365 231.243L365.196 231.715L368 230.553L370.804 231.715L371 231.243L394.997 241.183L394.802 241.655L400.801 244.14L400.997 243.668L424.994 253.608L424.799 254.08L430.798 256.565L430.994 256.093L454.991 266.033L454.796 266.505L460.795 268.99L460.991 268.518L484.989 278.458L484.793 278.93L487.597 280.092L488.759 282.896L489.231 282.7L499.171 306.698L498.699 306.894L501.184 312.893L501.656 312.697L511.596 336.695L511.124 336.891L513.609 342.89L514.081 342.695L524.021 366.692L523.549 366.888L526.034 372.887L526.506 372.692L536.446 396.689L535.974 396.885L537.136 399.689L535.974 402.493L536.446 402.689L526.506 426.686L526.034 426.491L523.549 432.49L524.021 432.686L514.081 456.683L513.609 456.488L511.124 462.487L511.596 462.683L501.656 486.68L501.184 486.485L498.699 492.484L499.171 492.68L489.231 516.677L488.759 516.482L487.597 519.286L484.793 520.447L484.989 520.92L460.991 530.86L460.795 530.388L454.796 532.873L454.991 533.345L430.994 543.285L430.798 542.813L424.799 545.298L424.994 545.77L400.997 555.71L400.801 555.238L394.802 557.723L394.997 558.195L371 568.135L370.804 567.663L368 568.825L365.196 567.663L365 568.135L341.003 558.195L341.198 557.723L335.199 555.238L335.003 555.71L311.006 545.77L311.201 545.298L305.202 542.813L305.006 543.285L281.009 533.345L281.204 532.873L275.205 530.388L275.009 530.86L251.012 520.92L251.207 520.447L248.403 519.286L247.242 516.482L246.769 516.677L236.829 492.68L237.301 492.484L234.816 486.485L234.344 486.68L224.404 462.683L224.876 462.487L222.391 456.488L221.919 456.683L211.979 432.686L212.451 432.49L209.966 426.491L209.494 426.686L199.554 402.689L200.026 402.493L198.864 399.689L200.026 396.885L199.554 396.689L209.494 372.692L209.966 372.887L212.451 366.888L211.979 366.692L221.919 342.695L222.391 342.89L224.876 336.891L224.404 336.695L234.344 312.697L234.816 312.893L237.301 306.894L236.829 306.698L246.769 282.7L247.242 282.896L248.403 280.092L251.207 278.93L251.012 278.458L275.009 268.518L275.205 268.99L281.204 266.505L281.009 266.033L305.006 256.093L305.202 256.565L311.201 254.08L311.006 253.608L335.003 243.668L335.199 244.14L341.198 241.655L341.003 241.183Z" stroke="#11894E" stroke-width="1.02222" stroke-dasharray="6.13 24.53"/>
<path d="M346.904 134.12L369.291 124.848L369.486 125.32L372.089 124.242L374.692 125.32L374.887 124.848L397.274 134.12L397.078 134.593L402.675 136.911L402.871 136.439L425.257 145.712L425.062 146.184L430.659 148.502L430.854 148.03L453.241 157.303L453.045 157.775L458.642 160.093L458.838 159.621L481.224 168.894L481.029 169.366L486.625 171.684L486.821 171.212L509.208 180.485L509.012 180.957L514.609 183.275L514.805 182.803L537.191 192.076L536.996 192.548L542.592 194.867L542.788 194.394L565.175 203.667L564.979 204.139L567.582 205.218L568.66 207.82L569.132 207.625L578.405 230.012L577.933 230.207L580.251 235.804L580.723 235.608L589.996 257.995L589.524 258.191L591.842 263.787L592.315 263.592L601.587 285.978L601.115 286.174L603.433 291.771L603.906 291.575L613.179 313.962L612.706 314.158L615.025 319.754L615.497 319.559L624.77 341.945L624.297 342.141L626.616 347.738L627.088 347.542L636.361 369.929L635.889 370.124L638.207 375.721L638.679 375.526L647.952 397.912L647.48 398.108L648.558 400.711L647.48 403.313L647.952 403.509L638.679 425.896L638.207 425.7L635.889 431.297L636.361 431.492L627.088 453.879L626.616 453.684L624.297 459.28L624.77 459.476L615.497 481.863L615.025 481.667L612.706 487.264L613.179 487.459L603.906 509.846L603.433 509.651L601.115 515.247L601.587 515.443L592.315 537.83L591.842 537.634L589.524 543.231L589.996 543.426L580.723 565.813L580.251 565.618L577.933 571.214L578.405 571.41L569.132 593.797L568.66 593.601L567.582 596.204L564.979 597.282L565.175 597.754L542.788 607.027L542.592 606.555L536.996 608.873L537.191 609.345L514.805 618.618L514.609 618.146L509.012 620.464L509.208 620.936L486.821 630.209L486.625 629.737L481.029 632.055L481.224 632.527L458.838 641.8L458.642 641.328L453.045 643.646L453.241 644.119L430.854 653.392L430.659 652.919L425.062 655.238L425.257 655.71L402.871 664.983L402.675 664.51L397.078 666.829L397.274 667.301L374.887 676.574L374.692 676.102L372.089 677.18L369.486 676.102L369.291 676.574L346.904 667.301L347.099 666.829L341.503 664.51L341.307 664.983L318.92 655.71L319.116 655.238L313.519 652.919L313.324 653.392L290.937 644.119L291.132 643.646L285.536 641.328L285.34 641.8L262.953 632.527L263.149 632.055L257.552 629.737L257.357 630.209L234.97 620.936L235.165 620.464L229.569 618.146L229.373 618.618L206.986 609.345L207.182 608.873L201.585 606.555L201.39 607.027L179.003 597.754L179.199 597.282L176.596 596.204L175.518 593.601L175.045 593.797L165.773 571.41L166.245 571.214L163.927 565.618L163.454 565.813L154.181 543.426L154.654 543.231L152.335 537.634L151.863 537.83L142.59 515.443L143.062 515.247L140.744 509.651L140.272 509.846L130.999 487.459L131.471 487.264L129.153 481.667L128.681 481.863L119.408 459.476L119.88 459.28L117.562 453.684L117.09 453.879L107.817 431.493L108.289 431.297L105.971 425.7L105.499 425.896L96.2258 403.509L96.698 403.313L95.6199 400.711L96.698 398.108L96.2258 397.912L105.499 375.526L105.971 375.721L108.289 370.124L107.817 369.929L117.09 347.542L117.562 347.738L119.88 342.141L119.408 341.945L128.681 319.559L129.153 319.754L131.471 314.158L130.999 313.962L140.272 291.575L140.744 291.771L143.062 286.174L142.59 285.978L151.863 263.592L152.335 263.787L154.654 258.191L154.181 257.995L163.454 235.608L163.927 235.804L166.245 230.207L165.773 230.012L175.045 207.625L175.518 207.82L176.596 205.218L179.199 204.139L179.003 203.667L201.39 194.394L201.585 194.867L207.182 192.548L206.986 192.076L229.373 182.803L229.569 183.275L235.165 180.957L234.97 180.485L257.357 171.212L257.552 171.684L263.149 169.366L262.953 168.894L285.34 159.621L285.536 160.093L291.132 157.775L290.937 157.303L313.324 148.03L313.519 148.502L319.116 146.184L318.92 145.712L341.307 136.439L341.503 136.911L347.099 134.593L346.904 134.12Z" stroke="#11894E" stroke-width="1.02222" stroke-dasharray="6.13 24.53"/>
<path d="M346.458 1.4166L369.241 -8.02055L369.436 -7.54835L372.089 -8.64698L374.741 -7.54835L374.937 -8.02055L397.72 1.41659L397.524 1.8888L403.22 4.24809L403.416 3.77589L426.199 13.213L426.004 13.6852L431.699 16.0445L431.895 15.5723L454.678 25.0095L454.483 25.4817L460.178 27.841L460.374 27.3688L483.157 36.8059L482.962 37.2781L488.658 39.6374L488.853 39.1652L511.636 48.6023L511.441 49.0745L517.137 51.4338L517.332 50.9616L540.116 60.3988L539.92 60.871L545.616 63.2303L545.811 62.7581L568.595 72.1952L568.399 72.6674L574.095 75.0267L574.291 74.5545L597.074 83.9916L596.878 84.4639L602.574 86.8231L602.77 86.3509L625.553 95.7881L625.357 96.2603L631.053 98.6196L631.249 98.1474L654.032 107.585L653.836 108.057L656.489 109.155L657.587 111.808L658.06 111.612L667.497 134.395L667.025 134.591L669.384 140.287L669.856 140.091L679.293 162.874L678.821 163.07L681.18 168.766L681.653 168.57L691.09 191.354L690.617 191.549L692.977 197.245L693.449 197.049L702.886 219.833L702.414 220.028L704.773 225.724L705.245 225.529L714.683 248.312L714.21 248.507L716.57 254.203L717.042 254.008L726.479 276.791L726.007 276.987L728.366 282.682L728.838 282.487L738.275 305.27L737.803 305.466L740.162 311.161L740.635 310.966L750.072 333.749L749.6 333.945L751.959 339.641L752.431 339.445L761.868 362.228L761.396 362.424L763.755 368.12L764.228 367.924L773.665 390.707L773.193 390.903L774.291 393.555L773.193 396.208L773.665 396.403L764.228 419.187L763.755 418.991L761.396 424.687L761.868 424.882L752.431 447.666L751.959 447.47L749.6 453.166L750.072 453.362L740.635 476.145L740.162 475.949L737.803 481.645L738.275 481.841L728.838 504.624L728.366 504.428L726.007 510.124L726.479 510.32L717.042 533.103L716.57 532.907L714.21 538.603L714.683 538.799L705.245 561.582L704.773 561.387L702.414 567.082L702.886 567.278L693.449 590.061L692.977 589.866L690.617 595.562L691.09 595.757L681.653 618.54L681.18 618.345L678.821 624.041L679.293 624.236L669.856 647.02L669.384 646.824L667.025 652.52L667.497 652.715L658.06 675.499L657.587 675.303L656.489 677.955L653.836 679.054L654.032 679.526L631.249 688.963L631.053 688.491L625.357 690.85L625.553 691.323L602.77 700.76L602.574 700.288L596.878 702.647L597.074 703.119L574.291 712.556L574.095 712.084L568.399 714.443L568.595 714.916L545.811 724.353L545.616 723.88L539.92 726.24L540.116 726.712L517.332 736.149L517.137 735.677L511.441 738.036L511.636 738.508L488.853 747.946L488.658 747.473L482.962 749.833L483.157 750.305L460.374 759.742L460.178 759.27L454.483 761.629L454.678 762.101L431.895 771.538L431.699 771.066L426.004 773.425L426.199 773.898L403.416 783.335L403.22 782.863L397.524 785.222L397.72 785.694L374.937 795.131L374.741 794.659L372.089 795.758L369.436 794.659L369.241 795.131L346.458 785.694L346.653 785.222L340.957 782.863L340.762 783.335L317.978 773.898L318.174 773.425L312.478 771.066L312.283 771.538L289.499 762.101L289.695 761.629L283.999 759.27L283.804 759.742L261.02 750.305L261.216 749.833L255.52 747.473L255.324 747.945L232.541 738.508L232.737 738.036L227.041 735.677L226.845 736.149L204.062 726.712L204.258 726.24L198.562 723.88L198.366 724.353L175.583 714.916L175.778 714.443L170.083 712.084L169.887 712.556L147.104 703.119L147.299 702.647L141.604 700.288L141.408 700.76L118.625 691.323L118.82 690.85L113.124 688.491L112.929 688.963L90.1455 679.526L90.3411 679.054L87.6888 677.955L86.5902 675.303L86.118 675.499L76.6808 652.715L77.153 652.52L74.7937 646.824L74.3215 647.02L64.8844 624.236L65.3566 624.041L62.9973 618.345L62.5251 618.54L53.0879 595.757L53.5602 595.562L51.2009 589.866L50.7287 590.061L41.2915 567.278L41.7637 567.082L39.4044 561.387L38.9322 561.582L29.4951 538.799L29.9673 538.603L27.608 532.907L27.1358 533.103L17.6986 510.32L18.1708 510.124L15.8116 504.428L15.3394 504.624L5.90221 481.841L6.37441 481.645L4.01512 475.949L3.54292 476.145L-5.89423 453.362L-5.42203 453.166L-7.78131 447.47L-8.25352 447.666L-17.6907 424.882L-17.2185 424.687L-19.5778 418.991L-20.05 419.187L-29.4871 396.403L-29.0149 396.208L-30.1135 393.555L-29.0149 390.903L-29.4871 390.707L-20.05 367.924L-19.5778 368.12L-17.2185 362.424L-17.6907 362.228L-8.25352 339.445L-7.78131 339.641L-5.42202 333.945L-5.89423 333.749L3.54292 310.966L4.01512 311.161L6.37441 305.466L5.90221 305.27L15.3394 282.487L15.8116 282.682L18.1708 276.987L17.6986 276.791L27.1358 254.008L27.608 254.203L29.9673 248.507L29.4951 248.312L38.9322 225.529L39.4044 225.724L41.7637 220.028L41.2915 219.833L50.7287 197.049L51.2009 197.245L53.5602 191.549L53.0879 191.354L62.5251 168.57L62.9973 168.766L65.3566 163.07L64.8844 162.874L74.3215 140.091L74.7937 140.287L77.153 134.591L76.6808 134.395L86.118 111.612L86.5902 111.808L87.6888 109.155L90.3411 108.057L90.1455 107.585L112.929 98.1474L113.124 98.6196L118.82 96.2603L118.625 95.7881L141.408 86.3509L141.604 86.8231L147.299 84.4638L147.104 83.9916L169.887 74.5545L170.083 75.0267L175.778 72.6674L175.583 72.1952L198.366 62.7581L198.562 63.2303L204.258 60.871L204.062 60.3988L226.845 50.9616L227.041 51.4338L232.737 49.0745L232.541 48.6023L255.324 39.1652L255.52 39.6374L261.216 37.2781L261.02 36.8059L283.804 27.3688L283.999 27.841L289.695 25.4817L289.499 25.0095L312.283 15.5723L312.478 16.0445L318.174 13.6852L317.978 13.213L340.762 3.77588L340.957 4.24809L346.653 1.8888L346.458 1.4166Z" stroke="#11894E" stroke-width="1.02222" stroke-dasharray="6.13 24.53"/>
<path d="M368 880.133L368 -110.4" stroke="#12884E" stroke-width="1.02222" stroke-linecap="square" stroke-dasharray="6.13 24.53"/>
<path d="M-28.6221 10.2222L764.622 803.467" stroke="#12884E" stroke-width="1.02222" stroke-linecap="square" stroke-dasharray="6.13 24.53"/>
<path d="M764.622 10.2222L-28.622 803.467" stroke="#12884E" stroke-width="1.02222" stroke-linecap="square" stroke-dasharray="6.13 24.53"/>
<rect x="198.822" y="168.156" width="129.822" height="46" rx="7.66667" fill="#FEFFFF"/>
<rect x="198.822" y="168.156" width="129.822" height="46" rx="7.66667" stroke="#D5D5D5" stroke-width="1.02222"/>
<path d="M228.091 193.081L230.11 185.981H231.088L230.522 188.742L228.349 196.156H227.378L228.091 193.081ZM226.001 185.981L227.609 192.941L228.091 196.156H227.126L224.66 185.981H226.001ZM233.702 192.934L235.274 185.981H236.623L234.163 196.156H233.199L233.702 192.934ZM231.235 185.981L233.199 193.081L233.912 196.156H232.94L230.844 188.742L230.271 185.981H231.235ZM237.357 192.459V192.298C237.357 191.753 237.436 191.248 237.594 190.782C237.753 190.312 237.981 189.904 238.279 189.559C238.577 189.21 238.938 188.94 239.362 188.749C239.786 188.553 240.261 188.455 240.788 188.455C241.319 188.455 241.796 188.553 242.22 188.749C242.649 188.94 243.012 189.21 243.31 189.559C243.613 189.904 243.844 190.312 244.002 190.782C244.16 191.248 244.24 191.753 244.24 192.298V192.459C244.24 193.004 244.16 193.51 244.002 193.976C243.844 194.441 243.613 194.849 243.31 195.198C243.012 195.543 242.651 195.813 242.227 196.009C241.808 196.2 241.333 196.296 240.802 196.296C240.271 196.296 239.793 196.2 239.369 196.009C238.945 195.813 238.582 195.543 238.279 195.198C237.981 194.849 237.753 194.441 237.594 193.976C237.436 193.51 237.357 193.004 237.357 192.459ZM238.649 192.298V192.459C238.649 192.837 238.694 193.193 238.782 193.528C238.871 193.859 239.003 194.153 239.18 194.409C239.362 194.665 239.588 194.868 239.858 195.017C240.128 195.161 240.443 195.233 240.802 195.233C241.156 195.233 241.465 195.161 241.731 195.017C242.001 194.868 242.225 194.665 242.402 194.409C242.579 194.153 242.712 193.859 242.8 193.528C242.893 193.193 242.94 192.837 242.94 192.459V192.298C242.94 191.926 242.893 191.574 242.8 191.243C242.712 190.908 242.576 190.612 242.395 190.356C242.218 190.095 241.994 189.89 241.724 189.741C241.458 189.592 241.146 189.517 240.788 189.517C240.434 189.517 240.121 189.592 239.851 189.741C239.586 189.89 239.362 190.095 239.18 190.356C239.003 190.612 238.871 190.908 238.782 191.243C238.694 191.574 238.649 191.926 238.649 192.298ZM247.154 189.783V196.156H245.861V188.595H247.119L247.154 189.783ZM249.515 188.553L249.508 189.755C249.401 189.732 249.299 189.718 249.201 189.713C249.108 189.704 249.001 189.699 248.88 189.699C248.581 189.699 248.318 189.746 248.09 189.839C247.862 189.932 247.668 190.062 247.51 190.23C247.352 190.398 247.226 190.598 247.133 190.831C247.044 191.059 246.986 191.311 246.958 191.586L246.595 191.795C246.595 191.339 246.639 190.91 246.727 190.51C246.82 190.109 246.963 189.755 247.154 189.447C247.345 189.135 247.587 188.893 247.88 188.721C248.178 188.544 248.532 188.455 248.942 188.455C249.036 188.455 249.143 188.467 249.264 188.49C249.385 188.509 249.469 188.53 249.515 188.553ZM252.01 185.422V196.156H250.71V185.422H252.01ZM256.629 188.595L253.331 192.124L251.486 194.038L251.381 192.662L252.702 191.083L255.05 188.595H256.629ZM255.448 196.156L252.751 192.55L253.422 191.397L256.971 196.156H255.448ZM269.543 190.747V191.39C269.543 192.154 269.447 192.839 269.256 193.444C269.065 194.05 268.79 194.565 268.432 194.989C268.073 195.413 267.642 195.736 267.139 195.96C266.64 196.184 266.081 196.296 265.462 196.296C264.861 196.296 264.309 196.184 263.806 195.96C263.307 195.736 262.874 195.413 262.506 194.989C262.142 194.565 261.861 194.05 261.66 193.444C261.46 192.839 261.36 192.154 261.36 191.39V190.747C261.36 189.983 261.458 189.301 261.653 188.7C261.854 188.094 262.135 187.579 262.499 187.155C262.862 186.727 263.293 186.401 263.792 186.177C264.295 185.954 264.847 185.842 265.448 185.842C266.067 185.842 266.626 185.954 267.125 186.177C267.628 186.401 268.059 186.727 268.418 187.155C268.781 187.579 269.058 188.094 269.249 188.7C269.445 189.301 269.543 189.983 269.543 190.747ZM268.208 191.39V190.733C268.208 190.128 268.145 189.592 268.019 189.126C267.898 188.66 267.719 188.269 267.481 187.952C267.244 187.635 266.952 187.395 266.608 187.232C266.268 187.069 265.881 186.988 265.448 186.988C265.028 186.988 264.649 187.069 264.309 187.232C263.973 187.395 263.684 187.635 263.442 187.952C263.205 188.269 263.021 188.66 262.89 189.126C262.76 189.592 262.695 190.128 262.695 190.733V191.39C262.695 192 262.76 192.541 262.89 193.011C263.021 193.477 263.207 193.871 263.449 194.192C263.696 194.509 263.987 194.749 264.323 194.912C264.663 195.075 265.042 195.156 265.462 195.156C265.9 195.156 266.289 195.075 266.629 194.912C266.969 194.749 267.255 194.509 267.488 194.192C267.726 193.871 267.905 193.477 268.026 193.011C268.147 192.541 268.208 192 268.208 191.39ZM272.659 189.783V196.156H271.366V188.595H272.624L272.659 189.783ZM275.021 188.553L275.014 189.755C274.907 189.732 274.804 189.718 274.707 189.713C274.613 189.704 274.506 189.699 274.385 189.699C274.087 189.699 273.824 189.746 273.596 189.839C273.367 189.932 273.174 190.062 273.016 190.23C272.857 190.398 272.731 190.598 272.638 190.831C272.55 191.059 272.491 191.311 272.464 191.586L272.1 191.795C272.1 191.339 272.144 190.91 272.233 190.51C272.326 190.109 272.468 189.755 272.659 189.447C272.85 189.135 273.092 188.893 273.386 188.721C273.684 188.544 274.038 188.455 274.448 188.455C274.541 188.455 274.648 188.467 274.77 188.49C274.891 188.509 274.974 188.53 275.021 188.553ZM280.842 194.688V185.422H282.142V196.156H280.954L280.842 194.688ZM275.755 192.459V192.312C275.755 191.735 275.825 191.211 275.964 190.74C276.109 190.265 276.311 189.857 276.572 189.517C276.838 189.177 277.152 188.916 277.516 188.735C277.884 188.548 278.294 188.455 278.746 188.455C279.221 188.455 279.635 188.539 279.989 188.707C280.348 188.87 280.651 189.11 280.898 189.426C281.149 189.739 281.347 190.116 281.492 190.558C281.636 191.001 281.736 191.502 281.792 192.061V192.704C281.741 193.258 281.641 193.757 281.492 194.199C281.347 194.642 281.149 195.019 280.898 195.331C280.651 195.643 280.348 195.883 279.989 196.051C279.631 196.214 279.211 196.296 278.732 196.296C278.289 196.296 277.884 196.2 277.516 196.009C277.152 195.818 276.838 195.55 276.572 195.205C276.311 194.861 276.109 194.455 275.964 193.99C275.825 193.519 275.755 193.009 275.755 192.459ZM277.055 192.312V192.459C277.055 192.837 277.092 193.191 277.166 193.521C277.246 193.852 277.367 194.143 277.53 194.395C277.693 194.646 277.9 194.844 278.152 194.989C278.403 195.129 278.704 195.198 279.053 195.198C279.482 195.198 279.833 195.108 280.108 194.926C280.388 194.744 280.611 194.504 280.779 194.206C280.947 193.908 281.077 193.584 281.17 193.235V191.551C281.114 191.295 281.033 191.048 280.926 190.81C280.823 190.568 280.688 190.354 280.521 190.167C280.357 189.976 280.155 189.825 279.913 189.713C279.675 189.601 279.393 189.545 279.067 189.545C278.713 189.545 278.408 189.62 278.152 189.769C277.9 189.913 277.693 190.114 277.53 190.37C277.367 190.621 277.246 190.915 277.166 191.25C277.092 191.581 277.055 191.935 277.055 192.312ZM287.292 196.296C286.765 196.296 286.288 196.207 285.859 196.03C285.435 195.848 285.07 195.594 284.762 195.268C284.459 194.942 284.226 194.556 284.063 194.108C283.9 193.661 283.819 193.172 283.819 192.641V192.347C283.819 191.732 283.91 191.185 284.091 190.705C284.273 190.221 284.52 189.811 284.832 189.475C285.144 189.14 285.498 188.886 285.894 188.714C286.29 188.541 286.7 188.455 287.124 188.455C287.664 188.455 288.13 188.548 288.522 188.735C288.918 188.921 289.241 189.182 289.493 189.517C289.744 189.848 289.931 190.239 290.052 190.691C290.173 191.138 290.234 191.628 290.234 192.159V192.739L284.587 192.739V191.684L288.941 191.684V191.586C288.922 191.25 288.852 190.924 288.731 190.607C288.615 190.291 288.428 190.03 288.172 189.825C287.916 189.62 287.567 189.517 287.124 189.517C286.831 189.517 286.56 189.58 286.313 189.706C286.067 189.827 285.855 190.009 285.678 190.251C285.501 190.493 285.363 190.789 285.265 191.138C285.167 191.488 285.119 191.891 285.119 192.347V192.641C285.119 193 285.167 193.337 285.265 193.654C285.368 193.966 285.514 194.241 285.705 194.479C285.901 194.716 286.136 194.903 286.411 195.038C286.691 195.173 287.008 195.24 287.362 195.24C287.818 195.24 288.205 195.147 288.522 194.961C288.838 194.774 289.116 194.525 289.353 194.213L290.136 194.835C289.973 195.082 289.765 195.317 289.514 195.541C289.262 195.764 288.953 195.946 288.584 196.086C288.221 196.226 287.79 196.296 287.292 196.296ZM293.036 189.783V196.156H291.743V188.595H293.001L293.036 189.783ZM295.398 188.553L295.391 189.755C295.284 189.732 295.181 189.718 295.083 189.713C294.99 189.704 294.883 189.699 294.762 189.699C294.464 189.699 294.2 189.746 293.972 189.839C293.744 189.932 293.551 190.062 293.392 190.23C293.234 190.398 293.108 190.598 293.015 190.831C292.926 191.059 292.868 191.311 292.84 191.586L292.477 191.795C292.477 191.339 292.521 190.91 292.609 190.51C292.703 190.109 292.845 189.755 293.036 189.447C293.227 189.135 293.469 188.893 293.762 188.721C294.061 188.544 294.415 188.455 294.825 188.455C294.918 188.455 295.025 188.467 295.146 188.49C295.267 188.509 295.351 188.53 295.398 188.553ZM300.995 194.15C300.995 193.964 300.953 193.792 300.869 193.633C300.79 193.47 300.625 193.323 300.373 193.193C300.126 193.058 299.753 192.941 299.255 192.844C298.836 192.755 298.456 192.65 298.116 192.529C297.78 192.408 297.494 192.261 297.256 192.089C297.023 191.916 296.844 191.714 296.718 191.481C296.593 191.248 296.53 190.975 296.53 190.663C296.53 190.365 296.595 190.083 296.725 189.818C296.86 189.552 297.049 189.317 297.291 189.112C297.538 188.907 297.834 188.746 298.179 188.63C298.524 188.513 298.908 188.455 299.332 188.455C299.937 188.455 300.455 188.562 300.883 188.777C301.312 188.991 301.64 189.277 301.868 189.636C302.097 189.99 302.211 190.384 302.211 190.817H300.918C300.918 190.607 300.855 190.405 300.729 190.209C300.608 190.009 300.429 189.843 300.191 189.713C299.958 189.583 299.672 189.517 299.332 189.517C298.973 189.517 298.682 189.573 298.458 189.685C298.239 189.792 298.079 189.93 297.976 190.097C297.878 190.265 297.829 190.442 297.829 190.628C297.829 190.768 297.853 190.894 297.899 191.006C297.951 191.113 298.039 191.213 298.165 191.306C298.291 191.395 298.468 191.479 298.696 191.558C298.924 191.637 299.215 191.716 299.569 191.795C300.189 191.935 300.699 192.103 301.1 192.298C301.5 192.494 301.799 192.734 301.994 193.018C302.19 193.302 302.288 193.647 302.288 194.052C302.288 194.383 302.218 194.686 302.078 194.961C301.943 195.236 301.745 195.473 301.484 195.674C301.228 195.869 300.92 196.023 300.562 196.135C300.208 196.242 299.809 196.296 299.367 196.296C298.701 196.296 298.137 196.177 297.676 195.939C297.214 195.702 296.865 195.394 296.627 195.017C296.39 194.639 296.271 194.241 296.271 193.822H297.571C297.589 194.176 297.692 194.458 297.878 194.667C298.065 194.872 298.293 195.019 298.563 195.108C298.833 195.191 299.101 195.233 299.367 195.233C299.721 195.233 300.017 195.187 300.254 195.094C300.496 195 300.68 194.872 300.806 194.709C300.932 194.546 300.995 194.36 300.995 194.15Z" fill="#252524"/>
<g filter="url(#filter0_d_57_196)">
<rect x="240.222" y="131.355" width="46" height="46" rx="23" fill="white" shape-rendering="crispEdges"/>
<rect x="241.245" y="132.378" width="43.9556" height="43.9556" rx="21.9778" stroke="#11894E" stroke-width="2.04444" shape-rendering="crispEdges"/>
<path d="M259.644 147.711H270.889M259.644 153.844H270.889M259.644 159.978H270.889M255.556 147.711V147.721M255.556 153.844V153.854M255.556 159.978V159.988" stroke="#11894E" stroke-width="1.53333" stroke-linecap="round" stroke-linejoin="round"/>
</g>
<rect x="497.311" y="215.178" width="129.822" height="48.0444" rx="7.66667" fill="#FEFFFF"/>
<rect x="497.311" y="215.178" width="129.822" height="48.0444" rx="7.66667" stroke="#D5D5D5" stroke-width="1.02222"/>
<path d="M520.156 239.71H517.437V238.613H520.156C520.682 238.613 521.108 238.529 521.434 238.361C521.761 238.193 521.998 237.96 522.147 237.662C522.301 237.364 522.378 237.024 522.378 236.642C522.378 236.293 522.301 235.964 522.147 235.657C521.998 235.349 521.761 235.102 521.434 234.916C521.108 234.725 520.682 234.629 520.156 234.629H517.752V243.7H516.403V233.525H520.156C520.924 233.525 521.574 233.658 522.105 233.924C522.636 234.189 523.039 234.557 523.314 235.028C523.589 235.494 523.727 236.027 523.727 236.628C523.727 237.28 523.589 237.837 523.314 238.298C523.039 238.759 522.636 239.111 522.105 239.353C521.574 239.591 520.924 239.71 520.156 239.71ZM525.858 233.525H527.165L530.498 241.82L533.824 233.525H535.138L531.001 243.7H529.981L525.858 233.525ZM525.432 233.525H526.585L526.773 239.731V243.7H525.432V233.525ZM534.404 233.525H535.557V243.7H534.215V239.731L534.404 233.525ZM541.476 233.525H544.844C545.608 233.525 546.253 233.642 546.779 233.875C547.31 234.108 547.713 234.452 547.988 234.909C548.268 235.361 548.408 235.918 548.408 236.579C548.408 237.045 548.312 237.471 548.121 237.858C547.935 238.24 547.665 238.566 547.31 238.836C546.961 239.102 546.542 239.3 546.053 239.43L545.675 239.577H542.51L542.496 238.48H544.886C545.37 238.48 545.773 238.396 546.095 238.228C546.416 238.056 546.658 237.825 546.821 237.536C546.984 237.248 547.066 236.928 547.066 236.579C547.066 236.188 546.989 235.845 546.835 235.552C546.682 235.258 546.439 235.032 546.109 234.874C545.782 234.711 545.361 234.629 544.844 234.629H542.824V243.7H541.476V233.525ZM547.422 243.7L544.949 239.088L546.353 239.081L548.862 243.616V243.7H547.422ZM553.236 243.839C552.71 243.839 552.232 243.751 551.804 243.574C551.38 243.392 551.014 243.138 550.707 242.812C550.404 242.486 550.171 242.099 550.008 241.652C549.845 241.205 549.763 240.716 549.763 240.185V239.891C549.763 239.276 549.854 238.729 550.036 238.249C550.217 237.765 550.464 237.355 550.776 237.019C551.089 236.684 551.443 236.43 551.839 236.258C552.235 236.085 552.645 235.999 553.068 235.999C553.609 235.999 554.075 236.092 554.466 236.279C554.862 236.465 555.186 236.726 555.437 237.061C555.689 237.392 555.875 237.783 555.996 238.235C556.118 238.682 556.178 239.172 556.178 239.703V240.283H550.532V239.227H554.885V239.13C554.867 238.794 554.797 238.468 554.676 238.151C554.559 237.835 554.373 237.574 554.117 237.369C553.86 237.164 553.511 237.061 553.068 237.061C552.775 237.061 552.505 237.124 552.258 237.25C552.011 237.371 551.799 237.553 551.622 237.795C551.445 238.037 551.308 238.333 551.21 238.682C551.112 239.032 551.063 239.435 551.063 239.891V240.185C551.063 240.544 551.112 240.881 551.21 241.198C551.312 241.51 551.459 241.785 551.65 242.023C551.846 242.26 552.081 242.447 552.356 242.582C552.635 242.717 552.952 242.784 553.306 242.784C553.763 242.784 554.149 242.691 554.466 242.505C554.783 242.318 555.06 242.069 555.298 241.757L556.08 242.379C555.917 242.626 555.71 242.861 555.458 243.085C555.207 243.308 554.897 243.49 554.529 243.63C554.166 243.77 553.735 243.839 553.236 243.839ZM558.973 237.641V243.7H557.673V236.139H558.903L558.973 237.641ZM558.708 239.633L558.107 239.612C558.111 239.095 558.179 238.617 558.309 238.179C558.44 237.737 558.633 237.352 558.889 237.026C559.146 236.7 559.465 236.449 559.847 236.272C560.229 236.09 560.671 235.999 561.174 235.999C561.528 235.999 561.855 236.05 562.153 236.153C562.451 236.251 562.709 236.407 562.928 236.621C563.147 236.835 563.317 237.11 563.438 237.446C563.56 237.781 563.62 238.186 563.62 238.661V243.7H562.327V238.724C562.327 238.328 562.26 238.012 562.125 237.774C561.994 237.536 561.808 237.364 561.566 237.257C561.323 237.145 561.039 237.089 560.713 237.089C560.331 237.089 560.012 237.157 559.756 237.292C559.5 237.427 559.295 237.613 559.141 237.851C558.987 238.088 558.875 238.361 558.805 238.668C558.74 238.971 558.708 239.293 558.708 239.633ZM563.606 238.92L562.74 239.186C562.744 238.771 562.812 238.373 562.942 237.991C563.077 237.609 563.271 237.269 563.522 236.97C563.779 236.672 564.093 236.437 564.466 236.265C564.838 236.088 565.265 235.999 565.744 235.999C566.15 235.999 566.508 236.053 566.821 236.16C567.137 236.267 567.403 236.432 567.617 236.656C567.836 236.875 568.002 237.157 568.113 237.501C568.225 237.846 568.281 238.256 568.281 238.731V243.7H566.981V238.717C566.981 238.293 566.914 237.965 566.779 237.732C566.648 237.494 566.462 237.329 566.22 237.236C565.982 237.138 565.698 237.089 565.367 237.089C565.083 237.089 564.831 237.138 564.612 237.236C564.393 237.334 564.209 237.469 564.06 237.641C563.911 237.809 563.797 238.002 563.718 238.221C563.643 238.44 563.606 238.673 563.606 238.92ZM571.642 236.139V243.7H570.342V236.139H571.642ZM570.245 234.133C570.245 233.924 570.307 233.747 570.433 233.602C570.564 233.458 570.755 233.386 571.006 233.386C571.253 233.386 571.442 233.458 571.572 233.602C571.707 233.747 571.775 233.924 571.775 234.133C571.775 234.334 571.707 234.506 571.572 234.65C571.442 234.79 571.253 234.86 571.006 234.86C570.755 234.86 570.564 234.79 570.433 234.65C570.307 234.506 570.245 234.334 570.245 234.133ZM575.01 237.753V243.7H573.718V236.139H574.94L575.01 237.753ZM574.703 239.633L574.165 239.612C574.169 239.095 574.246 238.617 574.395 238.179C574.544 237.737 574.754 237.352 575.024 237.026C575.294 236.7 575.616 236.449 575.989 236.272C576.366 236.09 576.783 235.999 577.239 235.999C577.612 235.999 577.948 236.05 578.246 236.153C578.544 236.251 578.798 236.409 579.007 236.628C579.222 236.847 579.385 237.131 579.497 237.481C579.608 237.825 579.664 238.247 579.664 238.745V243.7H578.364V238.731C578.364 238.335 578.306 238.019 578.19 237.781C578.073 237.539 577.903 237.364 577.68 237.257C577.456 237.145 577.181 237.089 576.855 237.089C576.534 237.089 576.24 237.157 575.975 237.292C575.714 237.427 575.488 237.613 575.297 237.851C575.11 238.088 574.964 238.361 574.857 238.668C574.754 238.971 574.703 239.293 574.703 239.633ZM586.394 242.232V232.966H587.693V243.7H586.505L586.394 242.232ZM581.306 240.003V239.856C581.306 239.279 581.376 238.755 581.516 238.284C581.66 237.809 581.863 237.401 582.124 237.061C582.389 236.721 582.704 236.46 583.067 236.279C583.435 236.092 583.845 235.999 584.297 235.999C584.772 235.999 585.187 236.083 585.541 236.251C585.9 236.414 586.203 236.654 586.449 236.97C586.701 237.283 586.899 237.66 587.043 238.102C587.188 238.545 587.288 239.046 587.344 239.605V240.248C587.293 240.802 587.192 241.301 587.043 241.743C586.899 242.186 586.701 242.563 586.449 242.875C586.203 243.187 585.9 243.427 585.541 243.595C585.182 243.758 584.763 243.839 584.283 243.839C583.841 243.839 583.435 243.744 583.067 243.553C582.704 243.362 582.389 243.094 582.124 242.749C581.863 242.405 581.66 241.999 581.516 241.533C581.376 241.063 581.306 240.553 581.306 240.003ZM582.606 239.856V240.003C582.606 240.38 582.643 240.735 582.718 241.065C582.797 241.396 582.918 241.687 583.081 241.939C583.244 242.19 583.452 242.388 583.703 242.533C583.955 242.672 584.255 242.742 584.605 242.742C585.033 242.742 585.385 242.652 585.66 242.47C585.939 242.288 586.163 242.048 586.331 241.75C586.498 241.452 586.629 241.128 586.722 240.779V239.095C586.666 238.838 586.585 238.592 586.477 238.354C586.375 238.112 586.24 237.897 586.072 237.711C585.909 237.52 585.706 237.369 585.464 237.257C585.227 237.145 584.945 237.089 584.619 237.089C584.265 237.089 583.959 237.164 583.703 237.313C583.452 237.457 583.244 237.658 583.081 237.914C582.918 238.165 582.797 238.459 582.718 238.794C582.643 239.125 582.606 239.479 582.606 239.856ZM592.843 243.839C592.317 243.839 591.839 243.751 591.411 243.574C590.987 243.392 590.621 243.138 590.314 242.812C590.011 242.486 589.778 242.099 589.615 241.652C589.452 241.205 589.37 240.716 589.37 240.185V239.891C589.37 239.276 589.461 238.729 589.643 238.249C589.825 237.765 590.071 237.355 590.384 237.019C590.696 236.684 591.05 236.43 591.446 236.258C591.842 236.085 592.252 235.999 592.676 235.999C593.216 235.999 593.682 236.092 594.073 236.279C594.469 236.465 594.793 236.726 595.044 237.061C595.296 237.392 595.482 237.783 595.603 238.235C595.725 238.682 595.785 239.172 595.785 239.703V240.283H590.139V239.227H594.492V239.13C594.474 238.794 594.404 238.468 594.283 238.151C594.166 237.835 593.98 237.574 593.724 237.369C593.468 237.164 593.118 237.061 592.676 237.061C592.382 237.061 592.112 237.124 591.865 237.25C591.618 237.371 591.406 237.553 591.229 237.795C591.052 238.037 590.915 238.333 590.817 238.682C590.719 239.032 590.67 239.435 590.67 239.891V240.185C590.67 240.544 590.719 240.881 590.817 241.198C590.919 241.51 591.066 241.785 591.257 242.023C591.453 242.26 591.688 242.447 591.963 242.582C592.242 242.717 592.559 242.784 592.913 242.784C593.37 242.784 593.756 242.691 594.073 242.505C594.39 242.318 594.667 242.069 594.905 241.757L595.687 242.379C595.524 242.626 595.317 242.861 595.065 243.085C594.814 243.308 594.504 243.49 594.136 243.63C593.773 243.77 593.342 243.839 592.843 243.839ZM598.587 237.327V243.7H597.295V236.139H598.552L598.587 237.327ZM600.949 236.097L600.942 237.299C600.835 237.276 600.733 237.262 600.635 237.257C600.542 237.248 600.434 237.243 600.313 237.243C600.015 237.243 599.752 237.29 599.524 237.383C599.295 237.476 599.102 237.606 598.944 237.774C598.785 237.942 598.66 238.142 598.566 238.375C598.478 238.603 598.42 238.855 598.392 239.13L598.028 239.339C598.028 238.883 598.073 238.454 598.161 238.054C598.254 237.653 598.396 237.299 598.587 236.991C598.778 236.679 599.021 236.437 599.314 236.265C599.612 236.088 599.966 235.999 600.376 235.999C600.469 235.999 600.577 236.011 600.698 236.034C600.819 236.053 600.903 236.074 600.949 236.097ZM606.546 241.694C606.546 241.508 606.505 241.335 606.421 241.177C606.341 241.014 606.176 240.867 605.925 240.737C605.678 240.602 605.305 240.485 604.806 240.387C604.387 240.299 604.008 240.194 603.667 240.073C603.332 239.952 603.046 239.805 602.808 239.633C602.575 239.46 602.396 239.258 602.27 239.025C602.144 238.792 602.081 238.519 602.081 238.207C602.081 237.909 602.146 237.627 602.277 237.362C602.412 237.096 602.601 236.861 602.843 236.656C603.09 236.451 603.386 236.29 603.73 236.174C604.075 236.057 604.459 235.999 604.883 235.999C605.489 235.999 606.006 236.106 606.435 236.321C606.863 236.535 607.192 236.821 607.42 237.18C607.648 237.534 607.762 237.928 607.762 238.361H606.47C606.47 238.151 606.407 237.949 606.281 237.753C606.16 237.553 605.98 237.387 605.743 237.257C605.51 237.126 605.223 237.061 604.883 237.061C604.525 237.061 604.233 237.117 604.01 237.229C603.791 237.336 603.63 237.474 603.528 237.641C603.43 237.809 603.381 237.986 603.381 238.172C603.381 238.312 603.404 238.438 603.451 238.55C603.502 238.657 603.591 238.757 603.716 238.85C603.842 238.939 604.019 239.023 604.247 239.102C604.476 239.181 604.767 239.26 605.121 239.339C605.741 239.479 606.251 239.647 606.651 239.842C607.052 240.038 607.35 240.278 607.546 240.562C607.741 240.846 607.839 241.191 607.839 241.596C607.839 241.927 607.769 242.23 607.63 242.505C607.494 242.78 607.296 243.017 607.036 243.218C606.779 243.413 606.472 243.567 606.113 243.679C605.759 243.786 605.361 243.839 604.918 243.839C604.252 243.839 603.688 243.721 603.227 243.483C602.766 243.245 602.417 242.938 602.179 242.561C601.941 242.183 601.823 241.785 601.823 241.366H603.122C603.141 241.72 603.244 242.002 603.43 242.211C603.616 242.416 603.844 242.563 604.115 242.652C604.385 242.735 604.653 242.777 604.918 242.777C605.272 242.777 605.568 242.731 605.806 242.638C606.048 242.544 606.232 242.416 606.358 242.253C606.484 242.09 606.546 241.904 606.546 241.694Z" fill="#252524"/>
<g filter="url(#filter1_d_57_196)">
<rect x="538.711" y="178.377" width="46" height="46" rx="23" fill="white" shape-rendering="crispEdges"/>
<rect x="539.733" y="179.4" width="43.9556" height="43.9556" rx="21.9778" stroke="#11894E" stroke-width="2.04444" shape-rendering="crispEdges"/>
<path d="M565.289 191.666V195.755M557.111 191.666V195.755M553.022 199.844H569.378M560.178 203.933H561.2V206.999M553.022 195.755C553.022 195.213 553.238 194.693 553.621 194.309C554.005 193.926 554.525 193.71 555.067 193.71H567.333C567.876 193.71 568.396 193.926 568.779 194.309C569.162 194.693 569.378 195.213 569.378 195.755V208.022C569.378 208.564 569.162 209.084 568.779 209.467C568.396 209.851 567.876 210.066 567.333 210.066H555.067C554.525 210.066 554.005 209.851 553.621 209.467C553.238 209.084 553.022 208.564 553.022 208.022V195.755Z" stroke="#11894E" stroke-width="1.53333" stroke-linecap="round" stroke-linejoin="round"/>
</g>
<rect x="428.822" y="524.911" width="105.289" height="39.8667" rx="7.66667" fill="#FEFFFF"/>
<rect x="428.822" y="524.911" width="105.289" height="39.8667" rx="7.66667" stroke="#D5D5D5" stroke-width="1.02222"/>
<path d="M453.563 539.897H456.691C457.4 539.897 457.999 540.005 458.488 540.221C458.981 540.437 459.355 540.758 459.611 541.181C459.87 541.601 460 542.118 460 542.732C460 543.165 459.911 543.561 459.734 543.92C459.561 544.274 459.31 544.577 458.981 544.828C458.657 545.075 458.267 545.259 457.813 545.38L457.463 545.516H454.523L454.51 544.497H456.73C457.18 544.497 457.554 544.419 457.852 544.264C458.151 544.104 458.376 543.889 458.527 543.621C458.678 543.353 458.754 543.057 458.754 542.732C458.754 542.369 458.683 542.051 458.54 541.778C458.397 541.506 458.172 541.296 457.865 541.149C457.562 540.998 457.171 540.922 456.691 540.922H454.815V549.344H453.563V539.897ZM459.085 549.344L456.788 545.062L458.092 545.055L460.422 549.266V549.344H459.085ZM464.484 549.474C463.995 549.474 463.551 549.392 463.153 549.227C462.76 549.059 462.42 548.823 462.135 548.52C461.854 548.217 461.637 547.858 461.486 547.443C461.334 547.028 461.259 546.574 461.259 546.08V545.808C461.259 545.237 461.343 544.729 461.512 544.283C461.681 543.833 461.91 543.452 462.2 543.141C462.489 542.83 462.818 542.594 463.186 542.434C463.554 542.274 463.934 542.194 464.328 542.194C464.83 542.194 465.262 542.28 465.626 542.453C465.993 542.626 466.294 542.868 466.528 543.18C466.761 543.487 466.934 543.85 467.047 544.27C467.159 544.685 467.215 545.14 467.215 545.633V546.171H461.973V545.191H466.015V545.101C465.998 544.789 465.933 544.486 465.82 544.192C465.712 543.898 465.539 543.656 465.301 543.465C465.063 543.275 464.739 543.18 464.328 543.18C464.055 543.18 463.805 543.238 463.575 543.355C463.346 543.468 463.149 543.636 462.985 543.861C462.82 544.086 462.693 544.361 462.602 544.685C462.511 545.01 462.466 545.384 462.466 545.808V546.08C462.466 546.414 462.511 546.727 462.602 547.021C462.697 547.311 462.833 547.566 463.011 547.787C463.192 548.008 463.411 548.181 463.666 548.306C463.926 548.431 464.22 548.494 464.549 548.494C464.972 548.494 465.332 548.408 465.626 548.235C465.92 548.062 466.177 547.83 466.398 547.54L467.125 548.118C466.973 548.347 466.781 548.566 466.547 548.773C466.313 548.981 466.026 549.15 465.684 549.279C465.347 549.409 464.947 549.474 464.484 549.474ZM469.817 543.673V552.044H468.61V542.323H469.714L469.817 543.673ZM474.548 545.775V545.912C474.548 546.422 474.487 546.896 474.366 547.333C474.245 547.765 474.067 548.142 473.834 548.462C473.605 548.782 473.321 549.031 472.984 549.208C472.646 549.385 472.259 549.474 471.822 549.474C471.377 549.474 470.983 549.4 470.641 549.253C470.3 549.106 470.01 548.892 469.772 548.611C469.534 548.33 469.344 547.992 469.201 547.599C469.063 547.205 468.967 546.762 468.915 546.269V545.542C468.967 545.023 469.065 544.558 469.207 544.147C469.35 543.736 469.538 543.385 469.772 543.096C470.01 542.801 470.298 542.579 470.635 542.427C470.972 542.272 471.362 542.194 471.803 542.194C472.244 542.194 472.636 542.28 472.977 542.453C473.319 542.622 473.607 542.864 473.84 543.18C474.074 543.496 474.249 543.874 474.366 544.315C474.487 544.752 474.548 545.239 474.548 545.775ZM473.341 545.912V545.775C473.341 545.425 473.304 545.096 473.23 544.789C473.157 544.478 473.042 544.205 472.887 543.972C472.735 543.734 472.54 543.548 472.303 543.414C472.065 543.275 471.781 543.206 471.453 543.206C471.15 543.206 470.886 543.258 470.661 543.362C470.44 543.465 470.252 543.606 470.096 543.783C469.941 543.956 469.813 544.155 469.714 544.38C469.618 544.601 469.547 544.83 469.499 545.068V546.749C469.586 547.052 469.707 547.337 469.863 547.605C470.019 547.869 470.226 548.083 470.486 548.248C470.745 548.408 471.072 548.488 471.466 548.488C471.79 548.488 472.069 548.421 472.303 548.287C472.54 548.148 472.735 547.96 472.887 547.722C473.042 547.484 473.157 547.212 473.23 546.904C473.304 546.593 473.341 546.262 473.341 545.912ZM475.761 545.912V545.762C475.761 545.256 475.835 544.787 475.982 544.354C476.129 543.918 476.341 543.539 476.618 543.219C476.894 542.894 477.23 542.644 477.623 542.466C478.017 542.285 478.458 542.194 478.947 542.194C479.44 542.194 479.884 542.285 480.277 542.466C480.675 542.644 481.013 542.894 481.289 543.219C481.571 543.539 481.785 543.918 481.932 544.354C482.079 544.787 482.152 545.256 482.152 545.762V545.912C482.152 546.418 482.079 546.887 481.932 547.32C481.785 547.752 481.571 548.131 481.289 548.455C481.013 548.775 480.677 549.026 480.284 549.208C479.894 549.385 479.453 549.474 478.96 549.474C478.467 549.474 478.023 549.385 477.63 549.208C477.236 549.026 476.899 548.775 476.618 548.455C476.341 548.131 476.129 547.752 475.982 547.32C475.835 546.887 475.761 546.418 475.761 545.912ZM476.961 545.762V545.912C476.961 546.262 477.003 546.593 477.085 546.904C477.167 547.212 477.29 547.484 477.455 547.722C477.623 547.96 477.833 548.148 478.084 548.287C478.335 548.421 478.627 548.488 478.96 548.488C479.289 548.488 479.576 548.421 479.823 548.287C480.074 548.148 480.282 547.96 480.446 547.722C480.61 547.484 480.734 547.212 480.816 546.904C480.902 546.593 480.946 546.262 480.946 545.912V545.762C480.946 545.416 480.902 545.09 480.816 544.783C480.734 544.471 480.608 544.197 480.439 543.959C480.275 543.716 480.067 543.526 479.816 543.388C479.57 543.249 479.28 543.18 478.947 543.18C478.618 543.18 478.328 543.249 478.078 543.388C477.831 543.526 477.623 543.716 477.455 543.959C477.29 544.197 477.167 544.471 477.085 544.783C477.003 545.09 476.961 545.416 476.961 545.762ZM484.858 543.427V549.344H483.658V542.323H484.826L484.858 543.427ZM487.051 542.285L487.045 543.401C486.945 543.379 486.85 543.366 486.759 543.362C486.673 543.353 486.573 543.349 486.461 543.349C486.184 543.349 485.94 543.392 485.728 543.478C485.516 543.565 485.336 543.686 485.189 543.842C485.042 543.998 484.925 544.184 484.839 544.4C484.757 544.612 484.702 544.845 484.677 545.101L484.339 545.295C484.339 544.871 484.38 544.473 484.462 544.101C484.549 543.729 484.681 543.401 484.858 543.115C485.036 542.825 485.261 542.6 485.533 542.44C485.81 542.276 486.139 542.194 486.519 542.194C486.606 542.194 486.705 542.204 486.818 542.226C486.93 542.243 487.008 542.263 487.051 542.285ZM491.425 542.323V543.245H487.629V542.323H491.425ZM488.914 540.617H490.114V547.605C490.114 547.843 490.151 548.023 490.224 548.144C490.298 548.265 490.393 548.345 490.51 548.384C490.627 548.423 490.752 548.442 490.886 548.442C490.986 548.442 491.09 548.434 491.198 548.416C491.31 548.395 491.395 548.377 491.451 548.364L491.457 549.344C491.362 549.375 491.237 549.403 491.081 549.429C490.929 549.459 490.746 549.474 490.529 549.474C490.235 549.474 489.965 549.416 489.718 549.299C489.472 549.182 489.275 548.987 489.128 548.715C488.985 548.438 488.914 548.066 488.914 547.599V540.617ZM494.137 542.323V549.344H492.93V542.323H494.137ZM492.839 540.461C492.839 540.267 492.898 540.102 493.015 539.968C493.136 539.834 493.313 539.767 493.547 539.767C493.776 539.767 493.951 539.834 494.072 539.968C494.198 540.102 494.26 540.267 494.26 540.461C494.26 540.647 494.198 540.807 494.072 540.941C493.951 541.071 493.776 541.136 493.547 541.136C493.313 541.136 493.136 541.071 493.015 540.941C492.898 540.807 492.839 540.647 492.839 540.461ZM497.265 543.822V549.344H496.064V542.323H497.2L497.265 543.822ZM496.979 545.568L496.48 545.548C496.484 545.068 496.555 544.625 496.694 544.218C496.832 543.807 497.027 543.45 497.278 543.148C497.529 542.845 497.827 542.611 498.173 542.447C498.523 542.278 498.911 542.194 499.335 542.194C499.681 542.194 499.992 542.241 500.269 542.336C500.546 542.427 500.782 542.574 500.976 542.778C501.175 542.981 501.327 543.245 501.43 543.569C501.534 543.889 501.586 544.281 501.586 544.744V549.344H500.379V544.731C500.379 544.363 500.325 544.069 500.217 543.848C500.109 543.623 499.951 543.461 499.743 543.362C499.536 543.258 499.28 543.206 498.978 543.206C498.679 543.206 498.407 543.269 498.16 543.394C497.918 543.52 497.708 543.693 497.531 543.913C497.358 544.134 497.221 544.387 497.122 544.672C497.027 544.954 496.979 545.252 496.979 545.568ZM507.958 542.323H509.048V549.195C509.048 549.814 508.923 550.341 508.672 550.778C508.421 551.215 508.071 551.546 507.621 551.771C507.175 552 506.66 552.115 506.076 552.115C505.834 552.115 505.549 552.076 505.22 551.998C504.895 551.925 504.575 551.797 504.259 551.615C503.948 551.438 503.686 551.198 503.474 550.895L504.104 550.181C504.398 550.536 504.705 550.783 505.025 550.921C505.35 551.059 505.67 551.129 505.985 551.129C506.366 551.129 506.695 551.057 506.972 550.915C507.249 550.772 507.463 550.56 507.614 550.279C507.77 550.002 507.848 549.66 507.848 549.253V543.868L507.958 542.323ZM503.124 545.912V545.775C503.124 545.239 503.187 544.752 503.312 544.315C503.442 543.874 503.626 543.496 503.864 543.18C504.106 542.864 504.398 542.622 504.74 542.453C505.081 542.28 505.466 542.194 505.895 542.194C506.336 542.194 506.721 542.272 507.05 542.427C507.383 542.579 507.664 542.801 507.893 543.096C508.127 543.385 508.311 543.736 508.445 544.147C508.579 544.558 508.672 545.023 508.724 545.542V546.139C508.676 546.654 508.583 547.116 508.445 547.527C508.311 547.938 508.127 548.289 507.893 548.579C507.664 548.868 507.383 549.091 507.05 549.247C506.717 549.398 506.327 549.474 505.882 549.474C505.462 549.474 505.081 549.385 504.74 549.208C504.402 549.031 504.112 548.782 503.87 548.462C503.628 548.142 503.442 547.765 503.312 547.333C503.187 546.896 503.124 546.422 503.124 545.912ZM504.324 545.775V545.912C504.324 546.262 504.359 546.591 504.428 546.898C504.502 547.205 504.612 547.475 504.759 547.709C504.911 547.943 505.103 548.127 505.337 548.261C505.57 548.39 505.849 548.455 506.174 548.455C506.572 548.455 506.9 548.371 507.16 548.202C507.419 548.034 507.625 547.811 507.776 547.534C507.932 547.257 508.053 546.956 508.14 546.632V545.068C508.092 544.83 508.019 544.601 507.919 544.38C507.824 544.155 507.699 543.956 507.543 543.783C507.391 543.606 507.203 543.465 506.978 543.362C506.753 543.258 506.489 543.206 506.187 543.206C505.858 543.206 505.575 543.275 505.337 543.414C505.103 543.548 504.911 543.734 504.759 543.972C504.612 544.205 504.502 544.478 504.428 544.789C504.359 545.096 504.324 545.425 504.324 545.775Z" fill="#252524"/>
<g filter="url(#filter2_d_57_196)">
<rect x="456.933" y="490.156" width="46" height="46" rx="23" fill="white" shape-rendering="crispEdges"/>
<rect x="457.956" y="491.178" width="43.9556" height="43.9556" rx="21.9778" stroke="#11894E" stroke-width="2.04444" shape-rendering="crispEdges"/>
<path d="M476.356 519.8V513.667C476.356 513.396 476.248 513.136 476.056 512.944C475.865 512.752 475.605 512.645 475.333 512.645H471.245C470.973 512.645 470.713 512.752 470.522 512.944C470.33 513.136 470.222 513.396 470.222 513.667V519.8C470.222 520.071 470.33 520.331 470.522 520.523C470.713 520.715 470.973 520.822 471.245 520.822M476.356 519.8C476.356 520.071 476.248 520.331 476.056 520.523C475.865 520.715 475.605 520.822 475.333 520.822H471.245M476.356 519.8C476.356 520.071 476.463 520.331 476.655 520.523C476.847 520.715 477.107 520.822 477.378 520.822H481.467C481.738 520.822 481.998 520.715 482.19 520.523C482.381 520.331 482.489 520.071 482.489 519.8M476.356 519.8V509.578C476.356 509.307 476.463 509.047 476.655 508.855C476.847 508.663 477.107 508.556 477.378 508.556H481.467C481.738 508.556 481.998 508.663 482.19 508.855C482.381 509.047 482.489 509.307 482.489 509.578V519.8M471.245 520.822H485.556M482.489 519.8C482.489 520.071 482.597 520.331 482.788 520.523C482.98 520.715 483.24 520.822 483.511 520.822H487.6C487.871 520.822 488.131 520.715 488.323 520.523C488.515 520.331 488.622 520.071 488.622 519.8V505.489C488.622 505.218 488.515 504.958 488.323 504.766C488.131 504.574 487.871 504.467 487.6 504.467H483.511C483.24 504.467 482.98 504.574 482.788 504.766C482.597 504.958 482.489 505.218 482.489 505.489V519.8Z" stroke="#11894E" stroke-width="1.53333" stroke-linecap="round" stroke-linejoin="round"/>
</g>
<rect x="198.822" y="638.378" width="113.467" height="39.8667" rx="7.66667" fill="#FEFFFF"/>
<rect x="198.822" y="638.378" width="113.467" height="39.8667" rx="7.66667" stroke="#D5D5D5" stroke-width="1.02222"/>
<path d="M221.183 652.637V662.811H219.834V652.637H221.183ZM224.733 656.864V662.811H223.44V655.25H224.663L224.733 656.864ZM224.425 658.744L223.887 658.723C223.892 658.206 223.969 657.729 224.118 657.291C224.267 656.848 224.477 656.464 224.747 656.138C225.017 655.812 225.338 655.56 225.711 655.383C226.088 655.201 226.505 655.11 226.962 655.11C227.335 655.11 227.67 655.162 227.968 655.264C228.266 655.362 228.52 655.52 228.73 655.739C228.944 655.958 229.107 656.242 229.219 656.592C229.331 656.937 229.387 657.358 229.387 657.857V662.811H228.087V657.843C228.087 657.447 228.029 657.13 227.912 656.892C227.796 656.65 227.626 656.475 227.402 656.368C227.179 656.256 226.904 656.201 226.578 656.201C226.256 656.201 225.963 656.268 225.697 656.403C225.436 656.538 225.21 656.725 225.019 656.962C224.833 657.2 224.686 657.472 224.579 657.78C224.477 658.083 224.425 658.404 224.425 658.744ZM235.753 660.806C235.753 660.619 235.711 660.447 235.627 660.288C235.548 660.125 235.382 659.979 235.131 659.848C234.884 659.713 234.511 659.597 234.013 659.499C233.593 659.41 233.214 659.305 232.874 659.184C232.538 659.063 232.252 658.916 232.014 658.744C231.781 658.572 231.602 658.369 231.476 658.136C231.35 657.903 231.287 657.631 231.287 657.319C231.287 657.02 231.353 656.739 231.483 656.473C231.618 656.208 231.807 655.972 232.049 655.767C232.296 655.562 232.592 655.402 232.937 655.285C233.281 655.169 233.666 655.11 234.09 655.11C234.695 655.11 235.212 655.218 235.641 655.432C236.069 655.646 236.398 655.933 236.626 656.291C236.854 656.645 236.969 657.039 236.969 657.472H235.676C235.676 657.263 235.613 657.06 235.487 656.864C235.366 656.664 235.187 656.499 234.949 656.368C234.716 656.238 234.43 656.173 234.09 656.173C233.731 656.173 233.44 656.228 233.216 656.34C232.997 656.447 232.836 656.585 232.734 656.753C232.636 656.92 232.587 657.097 232.587 657.284C232.587 657.423 232.61 657.549 232.657 657.661C232.708 657.768 232.797 657.868 232.923 657.961C233.048 658.05 233.225 658.134 233.454 658.213C233.682 658.292 233.973 658.371 234.327 658.451C234.947 658.59 235.457 658.758 235.857 658.954C236.258 659.149 236.556 659.389 236.752 659.673C236.948 659.958 237.045 660.302 237.045 660.708C237.045 661.038 236.976 661.341 236.836 661.616C236.701 661.891 236.503 662.129 236.242 662.329C235.986 662.525 235.678 662.678 235.319 662.79C234.965 662.897 234.567 662.951 234.124 662.951C233.458 662.951 232.895 662.832 232.433 662.594C231.972 662.357 231.623 662.049 231.385 661.672C231.148 661.295 231.029 660.896 231.029 660.477H232.329C232.347 660.831 232.45 661.113 232.636 661.323C232.822 661.528 233.051 661.674 233.321 661.763C233.591 661.847 233.859 661.889 234.124 661.889C234.479 661.889 234.774 661.842 235.012 661.749C235.254 661.656 235.438 661.528 235.564 661.365C235.69 661.202 235.753 661.015 235.753 660.806ZM240.036 656.704V665.718H238.736V655.25H239.924L240.036 656.704ZM245.13 658.968V659.114C245.13 659.664 245.065 660.174 244.935 660.645C244.804 661.111 244.613 661.516 244.362 661.861C244.115 662.205 243.81 662.473 243.446 662.664C243.083 662.855 242.666 662.951 242.195 662.951C241.716 662.951 241.292 662.872 240.924 662.713C240.556 662.555 240.243 662.324 239.987 662.021C239.731 661.719 239.526 661.355 239.372 660.931C239.223 660.507 239.121 660.03 239.065 659.499V658.716C239.121 658.157 239.226 657.656 239.379 657.214C239.533 656.771 239.736 656.394 239.987 656.082C240.243 655.765 240.553 655.525 240.917 655.362C241.28 655.194 241.699 655.11 242.174 655.11C242.65 655.11 243.071 655.204 243.439 655.39C243.807 655.572 244.117 655.833 244.369 656.173C244.62 656.513 244.809 656.92 244.935 657.395C245.065 657.866 245.13 658.39 245.13 658.968ZM243.831 659.114V658.968C243.831 658.59 243.791 658.236 243.712 657.906C243.633 657.57 243.509 657.277 243.341 657.025C243.178 656.769 242.969 656.569 242.713 656.424C242.456 656.275 242.151 656.201 241.797 656.201C241.471 656.201 241.187 656.256 240.945 656.368C240.707 656.48 240.504 656.631 240.337 656.822C240.169 657.009 240.032 657.223 239.924 657.465C239.822 657.703 239.745 657.95 239.694 658.206V660.016C239.787 660.342 239.917 660.649 240.085 660.938C240.253 661.222 240.476 661.453 240.756 661.63C241.035 661.802 241.387 661.889 241.811 661.889C242.16 661.889 242.461 661.816 242.713 661.672C242.969 661.523 243.178 661.32 243.341 661.064C243.509 660.808 243.633 660.514 243.712 660.184C243.791 659.848 243.831 659.492 243.831 659.114ZM249.917 662.951C249.391 662.951 248.913 662.862 248.484 662.685C248.061 662.504 247.695 662.25 247.387 661.924C247.085 661.597 246.852 661.211 246.689 660.764C246.526 660.316 246.444 659.827 246.444 659.296V659.003C246.444 658.388 246.535 657.84 246.717 657.361C246.898 656.876 247.145 656.466 247.457 656.131C247.769 655.795 248.123 655.541 248.519 655.369C248.915 655.197 249.325 655.11 249.749 655.11C250.29 655.11 250.756 655.204 251.147 655.39C251.543 655.576 251.867 655.837 252.118 656.173C252.37 656.503 252.556 656.895 252.677 657.347C252.798 657.794 252.859 658.283 252.859 658.814V659.394H247.213V658.339H251.566V658.241C251.547 657.906 251.478 657.579 251.356 657.263C251.24 656.946 251.054 656.685 250.797 656.48C250.541 656.275 250.192 656.173 249.749 656.173C249.456 656.173 249.186 656.235 248.939 656.361C248.692 656.482 248.48 656.664 248.303 656.906C248.126 657.149 247.988 657.444 247.891 657.794C247.793 658.143 247.744 658.546 247.744 659.003V659.296C247.744 659.655 247.793 659.993 247.891 660.309C247.993 660.622 248.14 660.896 248.331 661.134C248.526 661.372 248.762 661.558 249.037 661.693C249.316 661.828 249.633 661.896 249.987 661.896C250.443 661.896 250.83 661.802 251.147 661.616C251.464 661.43 251.741 661.181 251.978 660.868L252.761 661.49C252.598 661.737 252.391 661.972 252.139 662.196C251.888 662.42 251.578 662.601 251.21 662.741C250.846 662.881 250.415 662.951 249.917 662.951ZM257.394 661.889C257.701 661.889 257.986 661.826 258.247 661.7C258.507 661.574 258.722 661.402 258.889 661.183C259.057 660.959 259.153 660.705 259.176 660.421H260.406C260.382 660.868 260.231 661.285 259.952 661.672C259.677 662.054 259.316 662.364 258.868 662.601C258.421 662.834 257.93 662.951 257.394 662.951C256.826 662.951 256.33 662.851 255.906 662.65C255.486 662.45 255.137 662.175 254.857 661.826C254.583 661.476 254.375 661.076 254.235 660.624C254.1 660.167 254.033 659.685 254.033 659.177V658.884C254.033 658.376 254.1 657.896 254.235 657.444C254.375 656.988 254.583 656.585 254.857 656.235C255.137 655.886 255.486 655.611 255.906 655.411C256.33 655.211 256.826 655.11 257.394 655.11C257.986 655.11 258.503 655.232 258.945 655.474C259.388 655.711 259.735 656.037 259.986 656.452C260.243 656.862 260.382 657.328 260.406 657.85H259.176C259.153 657.538 259.064 657.256 258.91 657.004C258.761 656.753 258.556 656.552 258.295 656.403C258.039 656.249 257.739 656.173 257.394 656.173C256.998 656.173 256.665 656.252 256.395 656.41C256.129 656.564 255.917 656.774 255.759 657.039C255.605 657.3 255.493 657.591 255.423 657.913C255.358 658.229 255.326 658.553 255.326 658.884V659.177C255.326 659.508 255.358 659.834 255.423 660.156C255.489 660.477 255.598 660.768 255.752 661.029C255.91 661.29 256.122 661.5 256.388 661.658C256.658 661.812 256.993 661.889 257.394 661.889ZM265.025 655.25V656.242H260.937V655.25H265.025ZM262.32 653.412H263.613V660.938C263.613 661.195 263.653 661.388 263.732 661.518C263.811 661.649 263.914 661.735 264.039 661.777C264.165 661.819 264.3 661.84 264.445 661.84C264.552 661.84 264.664 661.83 264.78 661.812C264.901 661.788 264.992 661.77 265.053 661.756L265.06 662.811C264.957 662.844 264.822 662.874 264.654 662.902C264.491 662.934 264.293 662.951 264.06 662.951C263.744 662.951 263.452 662.888 263.187 662.762C262.921 662.636 262.709 662.427 262.551 662.133C262.397 661.835 262.32 661.434 262.32 660.931V653.412ZM267.946 655.25V662.811H266.646V655.25H267.946ZM266.548 653.245C266.548 653.035 266.611 652.858 266.737 652.714C266.867 652.569 267.058 652.497 267.31 652.497C267.557 652.497 267.745 652.569 267.876 652.714C268.011 652.858 268.078 653.035 268.078 653.245C268.078 653.445 268.011 653.617 267.876 653.762C267.745 653.902 267.557 653.971 267.31 653.971C267.058 653.971 266.867 653.902 266.737 653.762C266.611 653.617 266.548 653.445 266.548 653.245ZM269.679 659.114V658.954C269.679 658.409 269.758 657.903 269.916 657.437C270.075 656.967 270.303 656.559 270.601 656.215C270.899 655.865 271.26 655.595 271.684 655.404C272.108 655.208 272.583 655.11 273.11 655.11C273.641 655.11 274.118 655.208 274.542 655.404C274.971 655.595 275.334 655.865 275.632 656.215C275.935 656.559 276.166 656.967 276.324 657.437C276.482 657.903 276.562 658.409 276.562 658.954V659.114C276.562 659.66 276.482 660.165 276.324 660.631C276.166 661.097 275.935 661.504 275.632 661.854C275.334 662.198 274.973 662.469 274.549 662.664C274.13 662.855 273.655 662.951 273.124 662.951C272.593 662.951 272.115 662.855 271.691 662.664C271.267 662.469 270.904 662.198 270.601 661.854C270.303 661.504 270.075 661.097 269.916 660.631C269.758 660.165 269.679 659.66 269.679 659.114ZM270.971 658.954V659.114C270.971 659.492 271.016 659.848 271.104 660.184C271.193 660.514 271.325 660.808 271.502 661.064C271.684 661.32 271.91 661.523 272.18 661.672C272.45 661.816 272.765 661.889 273.124 661.889C273.478 661.889 273.787 661.816 274.053 661.672C274.323 661.523 274.547 661.32 274.724 661.064C274.901 660.808 275.034 660.514 275.122 660.184C275.215 659.848 275.262 659.492 275.262 659.114V658.954C275.262 658.581 275.215 658.229 275.122 657.899C275.034 657.563 274.899 657.267 274.717 657.011C274.54 656.75 274.316 656.545 274.046 656.396C273.78 656.247 273.468 656.173 273.11 656.173C272.756 656.173 272.443 656.247 272.173 656.396C271.908 656.545 271.684 656.75 271.502 657.011C271.325 657.267 271.193 657.563 271.104 657.899C271.016 658.229 270.971 658.581 270.971 658.954ZM279.476 656.864V662.811H278.183V655.25H279.406L279.476 656.864ZM279.168 658.744L278.63 658.723C278.635 658.206 278.712 657.729 278.861 657.291C279.01 656.848 279.219 656.464 279.49 656.138C279.76 655.812 280.081 655.56 280.454 655.383C280.831 655.201 281.248 655.11 281.705 655.11C282.077 655.11 282.413 655.162 282.711 655.264C283.009 655.362 283.263 655.52 283.473 655.739C283.687 655.958 283.85 656.242 283.962 656.592C284.074 656.937 284.13 657.358 284.13 657.857V662.811H282.83V657.843C282.83 657.447 282.772 657.13 282.655 656.892C282.539 656.65 282.369 656.475 282.145 656.368C281.921 656.256 281.646 656.201 281.32 656.201C280.999 656.201 280.705 656.268 280.44 656.403C280.179 656.538 279.953 656.725 279.762 656.962C279.576 657.2 279.429 657.472 279.322 657.78C279.219 658.083 279.168 658.404 279.168 658.744ZM290.495 660.806C290.495 660.619 290.454 660.447 290.37 660.288C290.29 660.125 290.125 659.979 289.874 659.848C289.627 659.713 289.254 659.597 288.755 659.499C288.336 659.41 287.957 659.305 287.616 659.184C287.281 659.063 286.995 658.916 286.757 658.744C286.524 658.572 286.345 658.369 286.219 658.136C286.093 657.903 286.03 657.631 286.03 657.319C286.03 657.02 286.095 656.739 286.226 656.473C286.361 656.208 286.55 655.972 286.792 655.767C287.039 655.562 287.335 655.402 287.679 655.285C288.024 655.169 288.408 655.11 288.832 655.11C289.438 655.11 289.955 655.218 290.384 655.432C290.812 655.646 291.141 655.933 291.369 656.291C291.597 656.645 291.711 657.039 291.711 657.472H290.419C290.419 657.263 290.356 657.06 290.23 656.864C290.109 656.664 289.929 656.499 289.692 656.368C289.459 656.238 289.172 656.173 288.832 656.173C288.474 656.173 288.182 656.228 287.959 656.34C287.74 656.447 287.579 656.585 287.477 656.753C287.379 656.92 287.33 657.097 287.33 657.284C287.33 657.423 287.353 657.549 287.4 657.661C287.451 657.768 287.54 657.868 287.665 657.961C287.791 658.05 287.968 658.134 288.196 658.213C288.425 658.292 288.716 658.371 289.07 658.451C289.69 658.59 290.2 658.758 290.6 658.954C291.001 659.149 291.299 659.389 291.495 659.673C291.69 659.958 291.788 660.302 291.788 660.708C291.788 661.038 291.718 661.341 291.579 661.616C291.443 661.891 291.245 662.129 290.985 662.329C290.728 662.525 290.421 662.678 290.062 662.79C289.708 662.897 289.31 662.951 288.867 662.951C288.201 662.951 287.637 662.832 287.176 662.594C286.715 662.357 286.366 662.049 286.128 661.672C285.89 661.295 285.772 660.896 285.772 660.477H287.071C287.09 660.831 287.193 661.113 287.379 661.323C287.565 661.528 287.793 661.674 288.064 661.763C288.334 661.847 288.602 661.889 288.867 661.889C289.221 661.889 289.517 661.842 289.755 661.749C289.997 661.656 290.181 661.528 290.307 661.365C290.433 661.202 290.495 661.015 290.495 660.806Z" fill="#252524"/>
<g filter="url(#filter3_d_57_196)">
<rect x="233.067" y="601.578" width="46" height="46" rx="23" fill="white" shape-rendering="crispEdges"/>
<rect x="234.089" y="602.6" width="43.9556" height="43.9556" rx="21.9778" stroke="#11894E" stroke-width="2.04444" shape-rendering="crispEdges"/>
<path d="M252.489 624.067L254.533 626.111L258.622 622.022M246.355 624.067C246.355 625.275 246.593 626.471 247.056 627.587C247.518 628.704 248.196 629.718 249.05 630.572C249.904 631.426 250.919 632.104 252.035 632.566C253.151 633.029 254.347 633.267 255.555 633.267C256.764 633.267 257.96 633.029 259.076 632.566C260.192 632.104 261.207 631.426 262.061 630.572C262.915 629.718 263.593 628.704 264.055 627.587C264.518 626.471 264.755 625.275 264.755 624.067C264.755 622.859 264.518 621.662 264.055 620.546C263.593 619.43 262.915 618.416 262.061 617.561C261.207 616.707 260.192 616.029 259.076 615.567C257.96 615.105 256.764 614.867 255.555 614.867C254.347 614.867 253.151 615.105 252.035 615.567C250.919 616.029 249.904 616.707 249.05 617.561C248.196 618.416 247.518 619.43 247.056 620.546C246.593 621.662 246.355 622.859 246.355 624.067Z" stroke="#11894E" stroke-width="1.53333" stroke-linecap="round" stroke-linejoin="round"/>
</g>
<g filter="url(#filter4_d_57_196)">
<circle cx="368" cy="393.556" r="74.6222" fill="white" stroke="#11894E" stroke-width="2.04444"/>
<circle cx="368" cy="393.555" r="51.1111" fill="#11894E"/>
<path d="M390.242 386.043C389.496 386.04 388.773 386.305 388.203 386.788C387.633 387.272 387.251 387.943 387.127 388.683L381.725 374.641H349.074L343.63 388.683C343.527 388.088 343.257 387.535 342.853 387.089C342.448 386.644 341.925 386.323 341.346 386.166C340.767 386.009 340.155 386.022 339.582 386.203C339.01 386.383 338.501 386.725 338.115 387.187C337.729 387.65 337.482 388.213 337.403 388.812C337.325 389.411 337.418 390.019 337.671 390.567C337.925 391.114 338.329 391.577 338.835 391.901C339.341 392.225 339.929 392.397 340.529 392.397V408.529L348.014 403.065H347.853C346.957 403.066 346.083 402.779 345.36 402.246C344.637 401.713 344.102 400.962 343.833 400.101C343.563 399.241 343.574 398.317 343.863 397.463C344.152 396.609 344.704 395.87 345.439 395.354C346.174 394.838 347.054 394.572 347.95 394.594C348.846 394.616 349.712 394.925 350.421 395.477C351.131 396.028 351.646 396.793 351.894 397.66C352.141 398.527 352.107 399.451 351.796 400.297L351.873 400.241L374.498 408.932L390.256 399.753V392.397C391.093 392.397 391.896 392.062 392.488 391.466C393.08 390.87 393.413 390.062 393.413 389.22C393.413 388.377 393.08 387.569 392.488 386.973C391.896 386.377 391.093 386.043 390.256 386.043H390.242ZM367.09 389.22H346.436L350.996 377.465H379.802L384.32 389.22H381.83C381.83 389.177 381.83 389.135 381.83 389.093C381.83 388.119 381.639 387.155 381.269 386.256C380.899 385.356 380.356 384.539 379.672 383.851C378.988 383.162 378.176 382.616 377.282 382.244C376.389 381.871 375.431 381.68 374.463 381.68C373.496 381.68 372.538 381.871 371.644 382.244C370.751 382.616 369.939 383.162 369.255 383.851C368.57 384.539 368.028 385.356 367.658 386.256C367.287 387.155 367.097 388.119 367.097 389.093C367.104 389.135 367.111 389.177 367.111 389.22H367.09ZM369.545 389.22C369.545 389.177 369.545 389.135 369.545 389.093C369.545 387.782 370.063 386.525 370.984 385.598C371.905 384.671 373.154 384.151 374.456 384.151C375.759 384.151 377.008 384.671 377.929 385.598C378.85 386.525 379.367 387.782 379.367 389.093C379.367 389.135 379.367 389.177 379.367 389.22H369.545ZM382.917 403.107C382.085 403.107 381.271 402.859 380.579 402.393C379.886 401.928 379.347 401.266 379.028 400.492C378.71 399.718 378.626 398.866 378.789 398.045C378.951 397.223 379.352 396.468 379.941 395.876C380.529 395.283 381.279 394.88 382.096 394.716C382.913 394.553 383.759 394.637 384.528 394.957C385.297 395.278 385.955 395.821 386.417 396.517C386.88 397.214 387.127 398.033 387.127 398.871C387.127 399.994 386.683 401.072 385.894 401.866C385.104 402.661 384.034 403.107 382.917 403.107Z" fill="white"/>
<path d="M398.431 394.628L395.813 401.103L394.77 399.355L374.31 411.441L351.75 402.473L336.54 411.441L351.75 397.459L374.31 406.412L392.516 395.59L391.501 393.877L398.431 394.628Z" fill="white"/>
</g>
<rect x="151.8" y="411.444" width="105.289" height="35.7778" rx="7.66667" fill="#FEFFFF"/>
<rect x="151.8" y="411.444" width="105.289" height="35.7778" rx="7.66667" stroke="#D5D5D5" stroke-width="1.02222"/>
<path d="M186.072 424.159V434.333H184.723V424.159H186.072ZM192.731 432.327C192.731 432.141 192.689 431.969 192.606 431.81C192.526 431.647 192.361 431.501 192.109 431.37C191.862 431.235 191.49 431.119 190.991 431.021C190.572 430.932 190.192 430.827 189.852 430.706C189.517 430.585 189.23 430.438 188.993 430.266C188.76 430.094 188.581 429.891 188.455 429.658C188.329 429.425 188.266 429.153 188.266 428.841C188.266 428.542 188.331 428.261 188.462 427.995C188.597 427.729 188.786 427.494 189.028 427.289C189.275 427.084 189.57 426.924 189.915 426.807C190.26 426.691 190.644 426.632 191.068 426.632C191.674 426.632 192.191 426.74 192.62 426.954C193.048 427.168 193.377 427.455 193.605 427.813C193.833 428.167 193.947 428.561 193.947 428.994H192.654C192.654 428.785 192.592 428.582 192.466 428.386C192.345 428.186 192.165 428.021 191.928 427.89C191.695 427.76 191.408 427.695 191.068 427.695C190.709 427.695 190.418 427.75 190.195 427.862C189.976 427.969 189.815 428.107 189.713 428.275C189.615 428.442 189.566 428.619 189.566 428.806C189.566 428.945 189.589 429.071 189.636 429.183C189.687 429.29 189.775 429.39 189.901 429.483C190.027 429.572 190.204 429.656 190.432 429.735C190.661 429.814 190.952 429.893 191.306 429.973C191.925 430.112 192.435 430.28 192.836 430.476C193.237 430.671 193.535 430.911 193.731 431.195C193.926 431.48 194.024 431.824 194.024 432.23C194.024 432.56 193.954 432.863 193.814 433.138C193.679 433.413 193.481 433.651 193.22 433.851C192.964 434.047 192.657 434.2 192.298 434.312C191.944 434.419 191.546 434.473 191.103 434.473C190.437 434.473 189.873 434.354 189.412 434.116C188.951 433.879 188.601 433.571 188.364 433.194C188.126 432.817 188.008 432.418 188.008 431.999H189.307C189.326 432.353 189.428 432.635 189.615 432.845C189.801 433.05 190.029 433.196 190.3 433.285C190.57 433.369 190.838 433.411 191.103 433.411C191.457 433.411 191.753 433.364 191.991 433.271C192.233 433.178 192.417 433.05 192.543 432.887C192.668 432.723 192.731 432.537 192.731 432.327ZM200.124 432.327C200.124 432.141 200.083 431.969 199.999 431.81C199.919 431.647 199.754 431.501 199.503 431.37C199.256 431.235 198.883 431.119 198.384 431.021C197.965 430.932 197.586 430.827 197.245 430.706C196.91 430.585 196.624 430.438 196.386 430.266C196.153 430.094 195.974 429.891 195.848 429.658C195.722 429.425 195.659 429.153 195.659 428.841C195.659 428.542 195.724 428.261 195.855 427.995C195.99 427.729 196.179 427.494 196.421 427.289C196.668 427.084 196.964 426.924 197.308 426.807C197.653 426.691 198.037 426.632 198.461 426.632C199.067 426.632 199.584 426.74 200.013 426.954C200.441 427.168 200.77 427.455 200.998 427.813C201.226 428.167 201.34 428.561 201.34 428.994H200.048C200.048 428.785 199.985 428.582 199.859 428.386C199.738 428.186 199.558 428.021 199.321 427.89C199.088 427.76 198.801 427.695 198.461 427.695C198.103 427.695 197.811 427.75 197.588 427.862C197.369 427.969 197.208 428.107 197.106 428.275C197.008 428.442 196.959 428.619 196.959 428.806C196.959 428.945 196.982 429.071 197.029 429.183C197.08 429.29 197.169 429.39 197.294 429.483C197.42 429.572 197.597 429.656 197.825 429.735C198.054 429.814 198.345 429.893 198.699 429.973C199.319 430.112 199.829 430.28 200.229 430.476C200.63 430.671 200.928 430.911 201.124 431.195C201.319 431.48 201.417 431.824 201.417 432.23C201.417 432.56 201.347 432.863 201.208 433.138C201.072 433.413 200.874 433.651 200.614 433.851C200.357 434.047 200.05 434.2 199.691 434.312C199.337 434.419 198.939 434.473 198.496 434.473C197.83 434.473 197.266 434.354 196.805 434.116C196.344 433.879 195.995 433.571 195.757 433.194C195.519 432.817 195.401 432.418 195.401 431.999H196.7C196.719 432.353 196.822 432.635 197.008 432.845C197.194 433.05 197.422 433.196 197.693 433.285C197.963 433.369 198.231 433.411 198.496 433.411C198.85 433.411 199.146 433.364 199.384 433.271C199.626 433.178 199.81 433.05 199.936 432.887C200.062 432.723 200.124 432.537 200.124 432.327ZM207.741 432.586V426.772H209.041V434.333H207.804L207.741 432.586ZM207.986 430.993L208.524 430.979C208.524 431.482 208.47 431.948 208.363 432.376C208.261 432.8 208.093 433.168 207.86 433.48C207.627 433.793 207.322 434.037 206.945 434.214C206.567 434.387 206.108 434.473 205.568 434.473C205.2 434.473 204.862 434.419 204.555 434.312C204.252 434.205 203.991 434.04 203.772 433.816C203.553 433.592 203.383 433.301 203.262 432.942C203.146 432.584 203.087 432.153 203.087 431.65V426.772H204.38V431.664C204.38 432.004 204.417 432.286 204.492 432.509C204.571 432.728 204.676 432.903 204.806 433.033C204.941 433.159 205.09 433.248 205.254 433.299C205.421 433.35 205.594 433.376 205.771 433.376C206.32 433.376 206.756 433.271 207.077 433.061C207.399 432.847 207.629 432.56 207.769 432.202C207.914 431.838 207.986 431.435 207.986 430.993ZM214.149 434.473C213.623 434.473 213.145 434.384 212.717 434.207C212.293 434.026 211.927 433.772 211.619 433.446C211.317 433.119 211.084 432.733 210.921 432.286C210.758 431.838 210.676 431.349 210.676 430.818V430.525C210.676 429.91 210.767 429.362 210.949 428.882C211.13 428.398 211.377 427.988 211.689 427.653C212.001 427.317 212.356 427.063 212.751 426.891C213.147 426.719 213.557 426.632 213.981 426.632C214.522 426.632 214.988 426.726 215.379 426.912C215.775 427.098 216.099 427.359 216.35 427.695C216.602 428.025 216.788 428.417 216.909 428.869C217.03 429.316 217.091 429.805 217.091 430.336V430.916H211.445V429.861H215.798V429.763C215.78 429.428 215.71 429.101 215.589 428.785C215.472 428.468 215.286 428.207 215.03 428.002C214.773 427.797 214.424 427.695 213.981 427.695C213.688 427.695 213.418 427.757 213.171 427.883C212.924 428.004 212.712 428.186 212.535 428.428C212.358 428.671 212.22 428.966 212.123 429.316C212.025 429.665 211.976 430.068 211.976 430.525V430.818C211.976 431.177 212.025 431.515 212.123 431.831C212.225 432.143 212.372 432.418 212.563 432.656C212.758 432.894 212.994 433.08 213.269 433.215C213.548 433.35 213.865 433.418 214.219 433.418C214.675 433.418 215.062 433.324 215.379 433.138C215.696 432.952 215.973 432.703 216.21 432.39L216.993 433.012C216.83 433.259 216.623 433.494 216.371 433.718C216.12 433.942 215.81 434.123 215.442 434.263C215.078 434.403 214.648 434.473 214.149 434.473ZM223.003 432.327C223.003 432.141 222.961 431.969 222.877 431.81C222.798 431.647 222.632 431.501 222.381 431.37C222.134 431.235 221.761 431.119 221.263 431.021C220.843 430.932 220.464 430.827 220.124 430.706C219.788 430.585 219.502 430.438 219.264 430.266C219.031 430.094 218.852 429.891 218.726 429.658C218.6 429.425 218.537 429.153 218.537 428.841C218.537 428.542 218.603 428.261 218.733 427.995C218.868 427.729 219.057 427.494 219.299 427.289C219.546 427.084 219.842 426.924 220.187 426.807C220.531 426.691 220.916 426.632 221.34 426.632C221.945 426.632 222.462 426.74 222.891 426.954C223.319 427.168 223.648 427.455 223.876 427.813C224.104 428.167 224.219 428.561 224.219 428.994H222.926C222.926 428.785 222.863 428.582 222.737 428.386C222.616 428.186 222.437 428.021 222.199 427.89C221.966 427.76 221.68 427.695 221.34 427.695C220.981 427.695 220.69 427.75 220.466 427.862C220.247 427.969 220.086 428.107 219.984 428.275C219.886 428.442 219.837 428.619 219.837 428.806C219.837 428.945 219.86 429.071 219.907 429.183C219.958 429.29 220.047 429.39 220.173 429.483C220.298 429.572 220.475 429.656 220.704 429.735C220.932 429.814 221.223 429.893 221.577 429.973C222.197 430.112 222.707 430.28 223.107 430.476C223.508 430.671 223.806 430.911 224.002 431.195C224.198 431.48 224.295 431.824 224.295 432.23C224.295 432.56 224.226 432.863 224.086 433.138C223.951 433.413 223.753 433.651 223.492 433.851C223.236 434.047 222.928 434.2 222.569 434.312C222.215 434.419 221.817 434.473 221.374 434.473C220.708 434.473 220.145 434.354 219.683 434.116C219.222 433.879 218.873 433.571 218.635 433.194C218.398 432.817 218.279 432.418 218.279 431.999H219.579C219.597 432.353 219.7 432.635 219.886 432.845C220.072 433.05 220.301 433.196 220.571 433.285C220.841 433.369 221.109 433.411 221.374 433.411C221.729 433.411 222.024 433.364 222.262 433.271C222.504 433.178 222.688 433.05 222.814 432.887C222.94 432.723 223.003 432.537 223.003 432.327Z" fill="#252524"/>
<g filter="url(#filter5_d_57_196)">
<rect x="180.933" y="369.533" width="46" height="46" rx="23" fill="white" shape-rendering="crispEdges"/>
<rect x="181.956" y="370.555" width="43.9556" height="43.9556" rx="21.9778" stroke="#11894E" stroke-width="2.04444" shape-rendering="crispEdges"/>
<path d="M203.422 388.955V393.044M203.422 396.111V396.121M194.222 392.022C194.222 393.23 194.46 394.426 194.922 395.542C195.385 396.659 196.062 397.673 196.917 398.527C197.771 399.381 198.785 400.059 199.901 400.521C201.018 400.984 202.214 401.222 203.422 401.222C204.63 401.222 205.827 400.984 206.943 400.521C208.059 400.059 209.073 399.381 209.928 398.527C210.782 397.673 211.46 396.659 211.922 395.542C212.384 394.426 212.622 393.23 212.622 392.022C212.622 390.814 212.384 389.617 211.922 388.501C211.46 387.385 210.782 386.371 209.928 385.516C209.073 384.662 208.059 383.984 206.943 383.522C205.827 383.06 204.63 382.822 203.422 382.822C202.214 382.822 201.018 383.06 199.901 383.522C198.785 383.984 197.771 384.662 196.917 385.516C196.062 386.371 195.385 387.385 194.922 388.501C194.46 389.617 194.222 390.814 194.222 392.022Z" stroke="#11894E" stroke-width="1.53333" stroke-linecap="round" stroke-linejoin="round"/>
</g>
</g>
<defs>
<filter id="filter0_d_57_196" x="234.089" y="129.311" width="58.2667" height="58.2667" filterUnits="userSpaceOnUse" color-interpolation-filters="sRGB">
<feFlood flood-opacity="0" result="BackgroundImageFix"/>
<feColorMatrix in="SourceAlpha" type="matrix" values="0 0 0 0 0 0 0 0 0 0 0 0 0 0 0 0 0 0 127 0" result="hardAlpha"/>
<feOffset dy="4.08889"/>
<feGaussianBlur stdDeviation="3.06667"/>
<feComposite in2="hardAlpha" operator="out"/>
<feColorMatrix type="matrix" values="0 0 0 0 0 0 0 0 0 0 0 0 0 0 0 0 0 0 0.08 0"/>
<feBlend mode="normal" in2="BackgroundImageFix" result="effect1_dropShadow_57_196"/>
<feBlend mode="normal" in="SourceGraphic" in2="effect1_dropShadow_57_196" result="shape"/>
</filter>
<filter id="filter1_d_57_196" x="532.578" y="176.333" width="58.2667" height="58.2667" filterUnits="userSpaceOnUse" color-interpolation-filters="sRGB">
<feFlood flood-opacity="0" result="BackgroundImageFix"/>
<feColorMatrix in="SourceAlpha" type="matrix" values="0 0 0 0 0 0 0 0 0 0 0 0 0 0 0 0 0 0 127 0" result="hardAlpha"/>
<feOffset dy="4.08889"/>
<feGaussianBlur stdDeviation="3.06667"/>
<feComposite in2="hardAlpha" operator="out"/>
<feColorMatrix type="matrix" values="0 0 0 0 0 0 0 0 0 0 0 0 0 0 0 0 0 0 0.08 0"/>
<feBlend mode="normal" in2="BackgroundImageFix" result="effect1_dropShadow_57_196"/>
<feBlend mode="normal" in="SourceGraphic" in2="effect1_dropShadow_57_196" result="shape"/>
</filter>
<filter id="filter2_d_57_196" x="450.8" y="488.111" width="58.2667" height="58.2667" filterUnits="userSpaceOnUse" color-interpolation-filters="sRGB">
<feFlood flood-opacity="0" result="BackgroundImageFix"/>
<feColorMatrix in="SourceAlpha" type="matrix" values="0 0 0 0 0 0 0 0 0 0 0 0 0 0 0 0 0 0 127 0" result="hardAlpha"/>
<feOffset dy="4.08889"/>
<feGaussianBlur stdDeviation="3.06667"/>
<feComposite in2="hardAlpha" operator="out"/>
<feColorMatrix type="matrix" values="0 0 0 0 0 0 0 0 0 0 0 0 0 0 0 0 0 0 0.08 0"/>
<feBlend mode="normal" in2="BackgroundImageFix" result="effect1_dropShadow_57_196"/>
<feBlend mode="normal" in="SourceGraphic" in2="effect1_dropShadow_57_196" result="shape"/>
</filter>
<filter id="filter3_d_57_196" x="226.933" y="599.533" width="58.2667" height="58.2667" filterUnits="userSpaceOnUse" color-interpolation-filters="sRGB">
<feFlood flood-opacity="0" result="BackgroundImageFix"/>
<feColorMatrix in="SourceAlpha" type="matrix" values="0 0 0 0 0 0 0 0 0 0 0 0 0 0 0 0 0 0 127 0" result="hardAlpha"/>
<feOffset dy="4.08889"/>
<feGaussianBlur stdDeviation="3.06667"/>
<feComposite in2="hardAlpha" operator="out"/>
<feColorMatrix type="matrix" values="0 0 0 0 0 0 0 0 0 0 0 0 0 0 0 0 0 0 0.08 0"/>
<feBlend mode="normal" in2="BackgroundImageFix" result="effect1_dropShadow_57_196"/>
<feBlend mode="normal" in="SourceGraphic" in2="effect1_dropShadow_57_196" result="shape"/>
</filter>
<filter id="filter4_d_57_196" x="267.822" y="293.378" width="200.356" height="200.356" filterUnits="userSpaceOnUse" color-interpolation-filters="sRGB">
<feFlood flood-opacity="0" result="BackgroundImageFix"/>
<feColorMatrix in="SourceAlpha" type="matrix" values="0 0 0 0 0 0 0 0 0 0 0 0 0 0 0 0 0 0 127 0" result="hardAlpha"/>
<feOffset/>
<feGaussianBlur stdDeviation="12.2667"/>
<feComposite in2="hardAlpha" operator="out"/>
<feColorMatrix type="matrix" values="0 0 0 0 0 0 0 0 0 0 0 0 0 0 0 0 0 0 0.16 0"/>
<feBlend mode="normal" in2="BackgroundImageFix" result="effect1_dropShadow_57_196"/>
<feBlend mode="normal" in="SourceGraphic" in2="effect1_dropShadow_57_196" result="shape"/>
</filter>
<filter id="filter5_d_57_196" x="174.8" y="367.489" width="58.2667" height="58.2667" filterUnits="userSpaceOnUse" color-interpolation-filters="sRGB">
<feFlood flood-opacity="0" result="BackgroundImageFix"/>
<feColorMatrix in="SourceAlpha" type="matrix" values="0 0 0 0 0 0 0 0 0 0 0 0 0 0 0 0 0 0 127 0" result="hardAlpha"/>
<feOffset dy="4.08889"/>
<feGaussianBlur stdDeviation="3.06667"/>
<feComposite in2="hardAlpha" operator="out"/>
<feColorMatrix type="matrix" values="0 0 0 0 0 0 0 0 0 0 0 0 0 0 0 0 0 0 0.08 0"/>
<feBlend mode="normal" in2="BackgroundImageFix" result="effect1_dropShadow_57_196"/>
<feBlend mode="normal" in="SourceGraphic" in2="effect1_dropShadow_57_196" result="shape"/>
</filter>
<clipPath id="clip0_57_196">
<rect width="736" height="787.111" fill="white"/>
</clipPath>
</defs>
</svg>
